<svg width="31" height="31" viewBox="0 0 31 31" fill="none" xmlns="http://www.w3.org/2000/svg">
<circle cx="15.5" cy="15.5" r="15.5" fill="#F5F5F7"/>
<path fill-rule="evenodd" clip-rule="evenodd" d="M15.5001 5.75C13.8425 5.75 12.2528 6.40848 11.0807 7.58058C9.90856 8.75268 9.25008 10.3424 9.25008 12C9.25008 14.9152 8.62676 16.7159 8.05968 17.7555C7.77476 18.2779 7.49855 18.6183 7.30928 18.8181C7.21438 18.9183 7.14065 18.9838 7.09769 19.0196C7.07619 19.0375 7.06237 19.048 7.05741 19.0517L7.05703 19.052C6.69977 19.2985 6.54185 19.7482 6.66799 20.1648C6.79568 20.5865 7.18441 20.875 7.62508 20.875H23.3751C23.8157 20.875 24.2045 20.5865 24.3322 20.1648C24.4583 19.7482 24.3004 19.2985 23.9431 19.052L23.9427 19.0517C23.9378 19.048 23.924 19.0375 23.9025 19.0196C23.8595 18.9838 23.7858 18.9183 23.6909 18.8181C23.5016 18.6183 23.2254 18.2779 22.9405 17.7555C22.3734 16.7159 21.7501 14.9152 21.7501 12C21.7501 10.3424 21.0916 8.75269 19.9195 7.58058C18.7474 6.40848 17.1577 5.75 15.5001 5.75ZM21.1847 18.7132C21.2148 18.7685 21.245 18.8224 21.2752 18.875H9.72495C9.75515 18.8224 9.78534 18.7685 9.81547 18.7132C10.5609 17.3466 11.2501 15.2098 11.2501 12C11.2501 10.8728 11.6978 9.79183 12.4949 8.9948C13.2919 8.19777 14.3729 7.75 15.5001 7.75C16.6272 7.75 17.7083 8.19777 18.5053 8.9948C19.3023 9.79183 19.7501 10.8728 19.7501 12C19.7501 15.2098 20.4393 17.3466 21.1847 18.7132ZM14.8513 22.8732C14.5742 22.3955 13.9623 22.2329 13.4846 22.51C13.0068 22.7871 12.8442 23.399 13.1213 23.8768C13.3631 24.2935 13.7101 24.6394 14.1275 24.8799C14.545 25.1203 15.0183 25.2469 15.5001 25.2469C15.9819 25.2469 16.4552 25.1203 16.8727 24.8799C17.2901 24.6394 17.6371 24.2935 17.8788 23.8768C18.156 23.399 17.9933 22.7871 17.5156 22.51C17.0379 22.2329 16.426 22.3955 16.1488 22.8732C16.0829 22.9869 15.9883 23.0812 15.8744 23.1468C15.7606 23.2124 15.6315 23.2469 15.5001 23.2469C15.3687 23.2469 15.2396 23.2124 15.1258 23.1468C15.0119 23.0812 14.9173 22.9869 14.8513 22.8732Z" fill="#777790"/>
</svg>
