<svg width="31" height="31" viewBox="0 0 31 31" fill="none" xmlns="http://www.w3.org/2000/svg">
<circle cx="15.5" cy="15.5" r="15.5" fill="#F5F5F7"/>
<path fill-rule="evenodd" clip-rule="evenodd" d="M13.4001 10.85C13.4001 9.6902 14.3403 8.75 15.5001 8.75C16.6599 8.75 17.6001 9.6902 17.6001 10.85C17.6001 12.0098 16.6599 12.95 15.5001 12.95C14.3403 12.95 13.4001 12.0098 13.4001 10.85ZM15.5001 6.75C13.2357 6.75 11.4001 8.58563 11.4001 10.85C11.4001 13.1144 13.2357 14.95 15.5001 14.95C17.7644 14.95 19.6001 13.1144 19.6001 10.85C19.6001 8.58563 17.7644 6.75 15.5001 6.75ZM12.4 16.05C11.3127 16.05 10.2698 16.482 9.50091 17.2509C8.73201 18.0198 8.30005 19.0626 8.30005 20.15V21.7C8.30005 22.2523 8.74776 22.7 9.30005 22.7C9.85233 22.7 10.3 22.2523 10.3 21.7V20.15C10.3 19.593 10.5213 19.0589 10.9151 18.6651C11.309 18.2712 11.8431 18.05 12.4 18.05H18.6C19.157 18.05 19.6911 18.2712 20.085 18.6651C20.4788 19.0589 20.7 19.593 20.7 20.15V21.7C20.7 22.2523 21.1478 22.7 21.7 22.7C22.2523 22.7 22.7 22.2523 22.7 21.7V20.15C22.7 19.0626 22.2681 18.0198 21.4992 17.2509C20.7303 16.482 19.6874 16.05 18.6 16.05H12.4Z" fill="#777790"/>
</svg>
